<svg aria-hidden="true" style="position: absolute; width: 0; height: 0; overflow: hidden;" version="1.1" xmlns="http://www.w3.org/2000/svg" xmlns:xlink="http://www.w3.org/1999/xlink">
<defs>
<symbol id="icon-close-btn" viewBox="0 0 32 32">
<path fill="#685ed6" style="fill: var(--color1, #685ed6)" d="M1 1v0c0.552-0.552 1.448-0.552 2 0l28 28c0.552 0.552 0.552 1.448 0 2v0c-0.552 0.552-1.448 0.552-2 0l-28-28c-0.552-0.552-0.552-1.448 0-2z"></path>
<path fill="#685ed6" style="fill: var(--color1, #685ed6)" d="M1 31v0c-0.552-0.552-0.552-1.448 0-2l28-28c0.552-0.552 1.448-0.552 2 0v0c0.552 0.552 0.552 1.448 0 2l-28 28c-0.552 0.552-1.448 0.552-2 0z"></path>
</symbol>
<symbol id="icon-open-btn" viewBox="0 0 53 32">
<path fill="#685ed6" style="fill: var(--color1, #685ed6)" d="M1.778 0h49.778c0.982 0 1.778 0.796 1.778 1.778s-0.796 1.778-1.778 1.778h-49.778c-0.982 0-1.778-0.796-1.778-1.778s0.796-1.778 1.778-1.778z"></path>
<path fill="#33afe1" style="fill: var(--color2, #33afe1)" d="M1.778 14.222h49.778c0.982 0 1.778 0.796 1.778 1.778s-0.796 1.778-1.778 1.778h-49.778c-0.982 0-1.778-0.796-1.778-1.778s0.796-1.778 1.778-1.778z"></path>
<path fill="#18e1f7" style="fill: var(--color3, #18e1f7)" d="M1.778 28.444h49.778c0.982 0 1.778 0.796 1.778 1.778s-0.796 1.778-1.778 1.778h-49.778c-0.982 0-1.778-0.796-1.778-1.778s0.796-1.778 1.778-1.778z"></path>
</symbol>
<symbol id="icon-fourth" viewBox="0 0 32 32">
<path fill="#685ed6" style="fill: var(--color1, #685ed6)" d="M7.787 14.157l-0.054-0.107 0.916-0.458 0.054 0.108c0.195 0.39 0.587 0.633 1.024 0.633s0.829-0.243 1.024-0.633l0.054-0.108 0.916 0.458-0.054 0.108c-0.37 0.739-1.113 1.198-1.939 1.198s-1.57-0.459-1.939-1.199zM0.001 26.104v-0.447c0-1.502 0.413-2.957 1.186-4.235l-0.984-1.721c-0.204-0.355-0.256-0.769-0.148-1.166s0.364-0.726 0.72-0.929c0.23-0.132 0.493-0.202 0.761-0.202 0.551 0 1.062 0.297 1.334 0.775l0.494 0.865c0.534-0.39 1.114-0.714 1.726-0.964-1.133-0.561-2.008-1.557-2.411-2.753-1.225-0.189-2.167-1.251-2.167-2.529v-0.335c0-0.148 0.013-0.296 0.038-0.44l0.876-5.041c0.704-4.044 4.193-6.979 8.298-6.979s7.595 2.935 8.298 6.979l0.877 5.043c0.025 0.142 0.038 0.29 0.038 0.439v0.335c0 1.278-0.942 2.34-2.167 2.529-0.403 1.197-1.279 2.193-2.412 2.754 3.019 1.243 5.091 4.231 5.091 7.578v0.447c0 1.976-1.608 3.583-3.583 3.583h-1.536v2.047h-9.213v-2.047h-1.535c-1.976 0-3.583-1.607-3.583-3.583zM5.631 28.663h2.559v-1.835l-0.512-0.512c-0.274-0.273-0.75-0.274-1.024 0l-0.3 0.3h-0.724c-0.283 0-0.512 0.23-0.512 0.512v1.024c0 0.282 0.229 0.512 0.512 0.512zM3.912 22.064l-0.854 0.569 1.691 2.959h0.37v-1.415l-1.207-2.113zM7.167 21.498h-1.024v3.924c0.674-0.478 1.663-0.424 2.259 0.17l0.204 0.205c0.17-0.126 0.379-0.204 0.608-0.204h4.095v-4.095h-1.024c0 0.565-0.459 1.024-1.024 1.024h-3.071c-0.565 0-1.024-0.459-1.024-1.024zM11.262 10.749c0 0.847 0.689 1.536 1.536 1.536s1.535-0.689 1.535-1.536-0.689-1.535-1.535-1.535c-0.847 0-1.536 0.689-1.536 1.535zM11.122 8.83c-0.882-0.34-1.678-0.896-2.3-1.642l-0.601-0.721c-0.171-0.206-0.424-0.325-0.692-0.325-0.344 0-0.653 0.191-0.807 0.499l-0.215 0.432-0.771 0.257c-0.369 0.123-0.616 0.467-0.616 0.855v0.53c0.429-0.325 0.957-0.525 1.535-0.525 1.236 0 2.269 0.881 2.507 2.047h1.127c0.114-0.559 0.418-1.045 0.832-1.407zM6.655 9.214c-0.847 0-1.535 0.689-1.535 1.535s0.689 1.536 1.535 1.536c0.847 0 1.535-0.689 1.535-1.536s-0.689-1.535-1.535-1.535zM5.12 12.856c0 1.274 0.812 2.401 2.021 2.804 0.628 0.21 1.050 0.795 1.050 1.457v0.736l0.124 0.495c0.162 0.65 0.743 1.102 1.412 1.102s1.249-0.453 1.412-1.102l0.124-0.495v-0.736c0-0.662 0.422-1.247 1.050-1.457 1.209-0.403 2.021-1.529 2.021-2.804v-0.073c-0.429 0.325-0.957 0.525-1.535 0.525-1.236 0-2.27-0.881-2.508-2.047h-1.127c-0.238 1.166-1.271 2.047-2.507 2.047-0.578 0-1.107-0.2-1.535-0.525v0.073zM8.191 20.474v1.024h3.071l-0-1.024h-3.071zM13.309 29.687h-7.166v1.024h7.166v-1.024zM12.762 18.65l-0.613-0.132-0.019 0.078c-0.088 0.352-0.254 0.665-0.469 0.935 0.366 0.156 0.624 0.52 0.624 0.942h2.047v5.118h1.852l0.653 1.307-0.916 0.458-0.37-0.741h-6.337v2.047h6.654c1.411 0 2.559-1.148 2.559-2.559v-0.447c0-3.356-2.383-6.303-5.665-7.006zM5.725 17.252l0.868 0.372 0.574-0.123v-0.384c0-0.221-0.14-0.416-0.35-0.486-1.628-0.543-2.721-2.059-2.721-3.775v-4.672c0-0.83 0.529-1.564 1.316-1.826l0.368-0.122 0.027-0.053c0.329-0.657 0.988-1.065 1.722-1.065 0.573 0 1.112 0.252 1.479 0.693l0.601 0.721c0.574 0.689 1.327 1.182 2.162 1.443-0.114-0.216-0.201-0.451-0.243-0.704-0.112-0.671-0.651-1.129-1.29-1.129v-1.024c1.141 0 2.105 0.817 2.292 1.942 0.112 0.672 0.652 1.129 1.29 1.129h1.536v4.666c0 1.716-1.094 3.233-2.721 3.775-0.209 0.070-0.35 0.265-0.35 0.486v0.384l0.574 0.123 0.867-0.372c1.069-0.458 1.875-1.404 2.157-2.533l0.096-0.387h0.4c0.847 0 1.536-0.689 1.536-1.535v-0.335c0-0.088-0.008-0.175-0.023-0.262l-0.877-5.044c-0.617-3.553-3.683-6.131-7.289-6.131s-6.672 2.579-7.29 6.131l-0.877 5.043c-0.015 0.088-0.023 0.176-0.023 0.263v0.335c0 0.847 0.689 1.535 1.535 1.535h0.4l0.096 0.388c0.283 1.128 1.089 2.075 2.157 2.532zM3.882 19.948l1.238 2.166v-1.639h2.047c0-0.423 0.257-0.786 0.624-0.942-0.214-0.27-0.381-0.583-0.469-0.935l-0.019-0.078-0.613 0.132c-1.021 0.219-1.978 0.672-2.807 1.298zM1.092 19.192l1.458 2.551 0.854-0.569-1.422-2.488c-0.135-0.237-0.464-0.326-0.698-0.191-0.12 0.069-0.205 0.178-0.241 0.31s-0.018 0.27 0.049 0.388zM1.025 26.104c0 1.411 1.148 2.559 2.559 2.559h0.606c-0.057-0.161-0.094-0.332-0.094-0.512v-1.024c0-0.18 0.037-0.351 0.094-0.512h-0.802l-0.371 0.741-0.916-0.458 0.654-1.306h0.815l-1.789-3.131c-0.494 0.989-0.756 2.078-0.756 3.196v0.447zM29.946 11.562l-2.397 1.93c-0.264 0.212-0.595 0.329-0.933 0.329s-0.669-0.117-0.932-0.329l-2.397-1.93c-1.137-0.915-1.788-2.279-1.788-3.742 0-0.426 0.056-0.85 0.168-1.261l1.134-4.183 0.374-0.015c1.123-0.047 2.21-0.308 3.229-0.777l0.214-0.098 0.214 0.098c1.018 0.469 2.105 0.73 3.229 0.777l0.374 0.015 1.134 4.182c0.112 0.412 0.168 0.835 0.168 1.261 0 1.465-0.652 2.829-1.788 3.744zM30.711 7.819c0-0.335-0.044-0.669-0.132-0.993l-0.94-3.466c-0.863-0.069-1.702-0.26-2.511-0.555v5.897h-1.024v-5.897c-0.809 0.295-1.649 0.485-2.511 0.555l-0.94 3.466c-0.088 0.323-0.132 0.658-0.132 0.992 0 1.152 0.513 2.226 1.406 2.945l2.176 1.752v-2.79h1.024v2.79l2.176-1.751c0.894-0.719 1.406-1.793 1.406-2.946zM29.326 14.482l-4.756 4.757-0.662-0.662-0.724 0.724 1.386 1.386 5.48-5.481-0.724-0.724zM29.326 18.064l-4.756 4.757-0.662-0.662-0.724 0.724 1.386 1.386 5.48-5.481-0.724-0.724zM23.907 25.742l-0.724 0.724 1.386 1.386 5.48-5.481-0.724-0.724-4.756 4.757-0.662-0.662z"></path>
</symbol>
<symbol id="icon-third" viewBox="0 0 31 32">
<path fill="#685ed6" style="fill: var(--color1, #685ed6)" d="M3.696 25.663c0-0.817-0.676-1.482-1.507-1.482s-1.507 0.665-1.507 1.482c0 0.817 0.676 1.482 1.507 1.482s1.507-0.665 1.507-1.482zM1.687 25.663c0-0.273 0.225-0.494 0.502-0.494s0.502 0.221 0.502 0.494c0 0.273-0.225 0.494-0.502 0.494s-0.502-0.221-0.502-0.494zM0.682 18.471c0 0.817 0.676 1.482 1.507 1.482s1.507-0.665 1.507-1.482c0-0.817-0.676-1.482-1.507-1.482s-1.507 0.665-1.507 1.482zM2.189 17.977c0.277 0 0.502 0.221 0.502 0.494s-0.225 0.494-0.502 0.494-0.502-0.221-0.502-0.494c0-0.273 0.225-0.494 0.502-0.494zM14.748 22.424c0 0.273 0.225 0.494 0.502 0.494h1.005c0.831 0 1.507 0.665 1.507 1.482s-0.676 1.482-1.507 1.482v0.988h-1.005v-0.988c-0.831 0-1.507-0.665-1.507-1.482h1.005c0 0.273 0.225 0.494 0.502 0.494h1.005c0.277 0 0.502-0.221 0.502-0.494s-0.225-0.494-0.502-0.494h-1.005c-0.831 0-1.507-0.665-1.507-1.482s0.676-1.482 1.507-1.482v-0.988h1.005v0.988c0.831 0 1.507 0.665 1.507 1.482h-1.005c0-0.273-0.225-0.494-0.502-0.494h-1.005c-0.277 0-0.502 0.221-0.502 0.494zM30.824 25.663c0 0.817-0.676 1.482-1.507 1.482s-1.507-0.665-1.507-1.482c0-0.817 0.676-1.482 1.507-1.482s1.507 0.665 1.507 1.482zM29.819 25.663c0-0.273-0.225-0.494-0.502-0.494s-0.502 0.221-0.502 0.494c0 0.273 0.225 0.494 0.502 0.494s0.502-0.221 0.502-0.494zM29.316 16.988c0.831 0 1.507 0.665 1.507 1.482s-0.676 1.482-1.507 1.482c-0.831 0-1.507-0.665-1.507-1.482s0.676-1.482 1.507-1.482zM29.316 17.977c-0.277 0-0.502 0.221-0.502 0.494s0.225 0.494 0.502 0.494 0.502-0.221 0.502-0.494c0-0.273-0.225-0.494-0.502-0.494zM26.805 26.157v-0.988h-1.005v-2.471h-2.009v0.988h1.005v2.471h2.009zM26.805 18.965v-0.988h-2.009v2.471h-1.005v0.988h2.009v-2.471h1.005zM4.701 25.169v0.988h2.009v-2.471h1.005v-0.988h-2.009v2.471h-1.005zM7.715 20.447h-1.005v-2.471h-2.009v0.988h1.005v2.471h2.009v-0.988zM13.744 10.565v-0.23l-0.165-0.108c-0.745-0.489-1.222-1.27-1.321-2.133h-0.523c-0.831 0-1.507-0.665-1.507-1.482 0-0.364 0.14-0.694 0.362-0.953-0.235-0.471-0.362-0.988-0.362-1.518 0-1.907 1.578-3.459 3.516-3.459h4.019c1.939 0 3.516 1.552 3.516 3.459 0 0.53-0.127 1.047-0.362 1.518 0.223 0.258 0.362 0.588 0.362 0.952 0 0.817-0.676 1.482-1.507 1.482h-0.523c-0.099 0.863-0.576 1.644-1.321 2.133l-0.165 0.108v0.23h7.535c0.224 0 0.429 0.075 0.596 0.197l0.2-0.197c0.648-0.637 1.778-0.637 2.425 0h0.294c0.831 0 1.507 0.665 1.507 1.482v0.988c0 0.817-0.676 1.482-1.507 1.482h-8.54v1.976h0.89l1.314 4.523c0.205 0.702 0.308 1.43 0.308 2.163 0 2.465-1.197 4.82-3.202 6.3l-1.42 1.047c-0.693 0.51-1.549 0.791-2.411 0.791s-1.718-0.28-2.409-0.789l-1.422-1.049c-2.005-1.479-3.203-3.834-3.203-6.3 0-0.733 0.104-1.461 0.308-2.164l1.313-4.522h0.89v-1.976h-8.54c-0.831 0-1.507-0.665-1.507-1.482v-0.988c0-0.817 0.676-1.482 1.507-1.482h0.294c0.648-0.637 1.778-0.637 2.425 0l0.2 0.197c0.167-0.122 0.372-0.197 0.596-0.197h7.535zM5.204 13.53v-1.772l-0.502-0.494c-0.269-0.263-0.736-0.263-1.005 0l-0.294 0.29h-0.71c-0.277 0-0.502 0.221-0.502 0.494v0.988c0 0.273 0.225 0.494 0.502 0.494h2.512zM20.407 17.482h-1.337c-0.886 0-1.744-0.256-2.481-0.739l-0.836-0.548-0.836 0.548c-0.736 0.484-1.595 0.739-2.482 0.739h-1.335l-1.105 3.806c-0.179 0.615-0.27 1.252-0.27 1.892 0 2.155 1.047 4.215 2.801 5.509l1.421 1.048c1.037 0.762 2.576 0.763 3.616-0.002l1.419-1.047c1.754-1.294 2.801-3.353 2.801-5.509 0-0.641-0.091-1.277-0.269-1.892l-1.105-3.807zM26.805 11.264l-0.502 0.494v1.772h2.512c0.277 0 0.502-0.221 0.502-0.494v-0.988c0-0.273-0.225-0.494-0.502-0.494h-0.71l-0.294-0.29c-0.269-0.263-0.736-0.263-1.005 0zM25.298 11.553h-7.535l-2.009 1.687-1.764-1.687h-7.781v1.977h6.028v2.964h0.198c0.688 0 1.354-0.198 1.925-0.573l1.394-0.915 1.394 0.915c0.571 0.375 1.236 0.573 1.922 0.573h0.2v-2.964h6.028v-1.977zM20.274 6.612c0-0.273-0.225-0.494-0.502-0.494h-0.502v0.988h0.502c0.277 0 0.502-0.221 0.502-0.494zM11.734 7.106h0.502v-0.988h-0.502c-0.277 0-0.502 0.221-0.502 0.494s0.225 0.494 0.502 0.494zM13.537 3.853c0.482-0.158 0.998-0.123 1.452 0.102l0.817 0.402c0.371 0.183 0.787 0.279 1.203 0.279 0.417 0 0.834 0.071 1.227 0.207l0.467 0.088 0.566 0.199h0.502c0.095 0 0.188 0.011 0.278 0.028 0.147-0.318 0.224-0.663 0.224-1.016 0-1.362-1.127-2.471-2.512-2.471h-4.019c-1.385 0-2.512 1.108-2.512 2.471 0 0.353 0.077 0.698 0.224 1.016 0.091-0.017 0.183-0.028 0.279-0.028h0.576c0.166-0.59 0.615-1.076 1.227-1.277zM14.136 9.405l0.165 0.108c0.28 0.184 0.448 0.491 0.448 0.822v0.519l1.005 0.988 1.005-0.988v-0.519c0-0.331 0.167-0.638 0.448-0.822l0.165-0.108c0.56-0.368 0.895-0.982 0.895-1.644v-1.831l-0.053-0.026c-0.372-0.183-0.788-0.279-1.203-0.279-0.571 0-1.142-0.133-1.652-0.383l-0.817-0.402c-0.215-0.106-0.459-0.123-0.684-0.048-0.368 0.121-0.614 0.457-0.614 0.838v2.133c0 0.662 0.335 1.277 0.895 1.644z"></path>
</symbol>
<symbol id="icon-second" viewBox="0 0 27 32">
<path fill="#685ed6" style="fill: var(--color1, #685ed6)" d="M10.714 7.162h-3.109l6.109-6.918 6.108 6.917h-3.109v11.339h-1v-12.338h1.891l-3.891-4.407-3.892 4.407h1.892v12.338h-1v-11.338zM5.214 19.5h17v12h-17v-12zM21.214 20.5h-5.5v10h5.5v-10zM9.214 21.254c0 0.135 0.11 0.246 0.246 0.246h2.008c0.135 0 0.246-0.111 0.246-0.246v-0.754h-2.5v0.754zM6.214 30.5h8.5v-10h-2v0.754c0 0.687-0.559 1.246-1.246 1.246h-2.008c-0.687 0-1.246-0.559-1.246-1.246v-0.754h-2v10zM2.214 31.5h1v-16.5h-0.978l2.478-3.186 2.478 3.186h-0.978v3.5h1v-2.5h2.022l-4.522-5.814-4.522 5.814h2.022v15.5zM20.214 13.5v5h1v-6h-0.978l2.477-3.186 2.478 3.186h-0.978v19h1v-18h2.022l-4.523-5.815-4.522 5.815h2.022z"></path>
</symbol>
<symbol id="icon-first" viewBox="0 0 32 32">
<path fill="#685ed6" style="fill: var(--color1, #685ed6)" d="M30.76 1.21c-0.294-0.294-0.722-0.396-1.117-0.265l-21.117 6.989c-0.575 0.19-0.281 1.080 0.295 0.89l21.117-6.989c0.147-0.015 0.213 0.050 0.197 0.197l-8.958 27.065c-0.070 0.211-0.364 0.228-0.458 0.027l-3.617-7.696 1.716-2.77c0.319-0.515-0.478-1.009-0.797-0.494l-1.698 2.742-4.237-0.359 11.722-11.722-4.485 7.24c-0.319 0.515 0.478 1.009 0.797 0.494l6.616-10.679c0.255-0.411-0.236-0.9-0.646-0.645l-15.522 9.656-7.723-3.641c-0.201-0.095-0.183-0.388 0.028-0.458l3.604-1.193c0.575-0.19 0.281-1.080-0.295-0.89l-3.604 1.193c-0.995 0.329-1.081 1.749-0.133 2.196l7.708 3.634 0.422 5.234c0.018 0.227 0.202 0.409 0.428 0.43l5.26 0.445 3.61 7.681c0.444 0.944 1.867 0.862 2.196-0.132l8.958-27.065c0.131-0.395 0.029-0.823-0.265-1.117zM11.425 19.881l-0.299-3.714-0.040-0.495 12.034-7.486-11.695 11.695z"></path>
<path fill="#685ed6" style="fill: var(--color1, #685ed6)" d="M9.18 22.536c-0.186-0.18-0.483-0.175-0.663 0.011l-8.383 8.657c-0.421 0.434 0.25 1.089 0.673 0.652l8.383-8.657c0.18-0.186 0.175-0.483-0.011-0.663z"></path>
<path fill="#685ed6" style="fill: var(--color1, #685ed6)" d="M12.189 22.548l-6.626 6.9c-0.419 0.436 0.255 1.088 0.676 0.649l6.626-6.9c0.42-0.437-0.256-1.086-0.676-0.649z"></path>
<path fill="#685ed6" style="fill: var(--color1, #685ed6)" d="M2.033 26.533c0.123 0 0.246-0.048 0.338-0.144l6.626-6.9c0.42-0.437-0.256-1.086-0.676-0.649l-6.626 6.9c-0.27 0.281-0.050 0.793 0.338 0.793z"></path>
</defs>
</svg>
