<!-- Generated by IcoMoon.io -->
<svg version="1.1" xmlns="http://www.w3.org/2000/svg" width="32" height="32" viewBox="0 0 32 32">
<title>close-btn</title>
<path fill="#685ed6" d="M1 1v0c0.552-0.552 1.448-0.552 2 0l28 28c0.552 0.552 0.552 1.448 0 2v0c-0.552 0.552-1.448 0.552-2 0l-28-28c-0.552-0.552-0.552-1.448 0-2z"></path>
<path fill="#685ed6" d="M1 31v0c-0.552-0.552-0.552-1.448 0-2l28-28c0.552-0.552 1.448-0.552 2 0v0c0.552 0.552 0.552 1.448 0 2l-28 28c-0.552 0.552-1.448 0.552-2 0z"></path>
</svg>
