<!-- Generated by IcoMoon.io -->
<svg version="1.1" xmlns="http://www.w3.org/2000/svg" width="53" height="32" viewBox="0 0 53 32">
<title>open-btn</title>
<path fill="#685ed6" d="M1.778 0h49.778c0.982 0 1.778 0.796 1.778 1.778s-0.796 1.778-1.778 1.778h-49.778c-0.982 0-1.778-0.796-1.778-1.778s0.796-1.778 1.778-1.778z"></path>
<path fill="#33afe1" d="M1.778 14.222h49.778c0.982 0 1.778 0.796 1.778 1.778s-0.796 1.778-1.778 1.778h-49.778c-0.982 0-1.778-0.796-1.778-1.778s0.796-1.778 1.778-1.778z"></path>
<path fill="#18e1f7" d="M1.778 28.444h49.778c0.982 0 1.778 0.796 1.778 1.778s-0.796 1.778-1.778 1.778h-49.778c-0.982 0-1.778-0.796-1.778-1.778s0.796-1.778 1.778-1.778z"></path>
</svg>
